# Blender v2.71 (sub 0) OBJ File: ''
# www.blender.org
o Cube
v 1.000000 -1.000000 -1.000000
v -0.000000 -1.000000 1.000000
v -1.000000 -1.000000 -1.000000
v 1.000000 1.000000 -0.999999
v -0.000001 1.000000 1.000000
v -1.000000 1.000000 -1.000000
vn 0.894400 0.000000 0.447200
vn -0.894400 -0.000000 0.447200
vn 0.000000 -1.000000 0.000000
vn 0.000000 0.000000 -1.000000
vn 0.000000 1.000000 0.000000
s off
f 4//1 5//1 2//1
f 5//2 6//2 3//2
f 1//3 2//3 3//3
f 1//4 3//4 6//4
f 4//5 6//5 5//5
f 1//1 4//1 2//1
f 2//2 5//2 3//2
f 4//4 1//4 6//4
